<svg width="434" height="450" viewBox="0 0 434 450" version="1.1" xmlns="http://www.w3.org/2000/svg" xmlns:xlink="http://www.w3.org/1999/xlink">
<title>turkey-01</title>
<desc>Created using Figma</desc>
<g id="Canvas" transform="translate(-1693 -3255)">
<g id="turkey-01">
<g id="Shape">
<use xlink:href="#path0_fill" transform="translate(1693 3364.69)" fill="#DADADA"/>
</g>
<g id="Shape">
<use xlink:href="#path1_fill" transform="translate(1693 3277.5)" fill="#B4B5B5"/>
</g>
<g id="Shape">
<use xlink:href="#path2_fill" transform="translate(1693 3316.88)" fill="#9E9E9E"/>
</g>
<g id="Shape">
<use xlink:href="#path3_fill" transform="translate(1775.5 3277.5)" fill="#B4B5B5"/>
</g>
<g id="Shape">
<use xlink:href="#path4_fill" transform="translate(1693 3277.5)" fill="#DADADA"/>
</g>
<g id="Shape">
<use xlink:href="#path5_fill" transform="translate(1745.5 3255)" fill="#17A5C8"/>
</g>
<g id="Shape" opacity="0.2">
<use xlink:href="#path6_fill" transform="translate(1745.5 3330)"/>
</g>
<g id="Shape" opacity="0.2">
<use xlink:href="#path7_fill" transform="translate(1745.5 3255)" fill="#FFFFFF"/>
</g>
<g id="Shape" opacity="0.12">
<use xlink:href="#path8_fill" transform="translate(1749.25 3320.62)"/>
</g>
<g id="Shape">
<use xlink:href="#path9_fill" transform="translate(1757.69 3338.44)" fill="#FFFFFF"/>
</g>
<g id="Shape">
<use xlink:href="#path10_fill" transform="translate(1765.19 3334.69)" fill="#FFFFFF"/>
</g>
<g id="Shape">
<use xlink:href="#path11_fill" transform="translate(1770.81 3329.06)" fill="#FFFFFF"/>
</g>
<g id="Shape">
<use xlink:href="#path12_fill" transform="translate(1783 3323.44)" fill="#FFFFFF"/>
</g>
<g id="Shape">
<use xlink:href="#path13_fill" transform="translate(1763.31 3352.5)" fill="#FFFFFF"/>
</g>
<g id="Shape">
<use xlink:href="#path14_fill" transform="translate(1768.94 3345)" fill="#FFFFFF"/>
</g>
<g id="Shape">
<use xlink:href="#path15_fill" transform="translate(1777.38 3343.12)" fill="#FFFFFF"/>
</g>
<g id="Shape">
<use xlink:href="#path16_fill" transform="translate(1780.19 3341.25)" fill="#FFFFFF"/>
</g>
<g id="Shape">
<use xlink:href="#path17_fill" transform="translate(1787.69 3340.31)" fill="#FFFFFF"/>
</g>
<g id="Shape">
<use xlink:href="#path18_fill" transform="translate(1768.94 3365.62)" fill="#FFFFFF"/>
</g>
<g id="Shape">
<use xlink:href="#path19_fill" transform="translate(1774.56 3359.06)" fill="#FFFFFF"/>
</g>
<g id="Shape">
<use xlink:href="#path20_fill" transform="translate(1783.94 3356.25)" fill="#FFFFFF"/>
</g>
<g id="Shape">
<use xlink:href="#path16_fill" transform="translate(1785.81 3354.38)" fill="#FFFFFF"/>
</g>
<g id="Shape">
<use xlink:href="#path21_fill" transform="translate(1796.12 3350.62)" fill="#E67417"/>
</g>
<g id="Shape">
<use xlink:href="#path22_fill" transform="translate(1803.62 3345)" fill="#FFFFFF"/>
</g>
<g id="Shape">
<use xlink:href="#path23_fill" transform="translate(1806.44 3344.06)" fill="#E67417"/>
</g>
<g id="Shape">
<use xlink:href="#path24_fill" transform="translate(1813.94 3340.31)" fill="#E67417"/>
</g>
<g id="Shape">
<use xlink:href="#path24_fill" transform="translate(1819.56 3336.56)" fill="#E67417"/>
</g>
<g id="Shape">
<use xlink:href="#path25_fill" transform="translate(1826.12 3333.75)" fill="#E67417"/>
</g>
<g id="Shape">
<use xlink:href="#path26_fill" transform="translate(1832.69 3328.12)" fill="#FFFFFF"/>
</g>
<g id="Shape">
<use xlink:href="#path27_fill" transform="translate(1837.38 3327.19)" fill="#E67417"/>
</g>
<g id="Shape">
<use xlink:href="#path28_fill" transform="translate(1842.06 3324.38)" fill="#E67417"/>
</g>
<g id="Shape">
<use xlink:href="#path29_fill" transform="translate(1848.62 3315.94)" fill="#E67417"/>
</g>
<g id="Shape">
<use xlink:href="#path26_fill" transform="translate(1860.81 3311.25)" fill="#FFFFFF"/>
</g>
<g id="Shape">
<use xlink:href="#path30_fill" transform="translate(1865.5 3312.19)" fill="#E67417"/>
</g>
<g id="Shape">
<use xlink:href="#path18_fill" transform="translate(1768.94 3381.56)" fill="#FFFFFF"/>
</g>
<g id="Shape">
<use xlink:href="#path31_fill" transform="translate(1773.62 3375)" fill="#FFFFFF"/>
</g>
<g id="Shape">
<use xlink:href="#path32_fill" transform="translate(1779.25 3373.12)" fill="#FFFFFF"/>
</g>
<g id="Shape">
<use xlink:href="#path33_fill" transform="translate(1787.69 3370.31)" fill="#FFFFFF"/>
</g>
<g id="Shape">
<use xlink:href="#path16_fill" transform="translate(1790.5 3369.38)" fill="#FFFFFF"/>
</g>
<g id="Shape">
<use xlink:href="#path30_fill" transform="translate(1798 3367.5)" fill="#FFFFFF"/>
</g>
<g id="Shape">
<use xlink:href="#path5_fill" transform="translate(1789.56 3281.25)" fill="#17A5C8"/>
</g>
<g id="Shape" opacity="0.2">
<use xlink:href="#path6_fill" transform="translate(1789.56 3356.25)"/>
</g>
<g id="Shape" opacity="0.2">
<use xlink:href="#path7_fill" transform="translate(1789.56 3281.25)" fill="#FFFFFF"/>
</g>
<g id="Shape" opacity="0.12">
<use xlink:href="#path34_fill" transform="translate(1793.31 3346.88)"/>
</g>
<g id="Shape">
<use xlink:href="#path35_fill" transform="translate(1801.75 3364.69)" fill="#FFFFFF"/>
</g>
<g id="Shape">
<use xlink:href="#path24_fill" transform="translate(1808.31 3360.94)" fill="#FFFFFF"/>
</g>
<g id="Shape">
<use xlink:href="#path24_fill" transform="translate(1813.94 3358.12)" fill="#FFFFFF"/>
</g>
<g id="Shape">
<use xlink:href="#path36_fill" transform="translate(1801.75 3389.06)" fill="#FFFFFF"/>
</g>
<g id="Shape">
<use xlink:href="#path37_fill" transform="translate(1805.5 3379.69)" fill="#FFFFFF"/>
</g>
<g id="Shape">
<use xlink:href="#path38_fill" transform="translate(1813 3375)" fill="#FFFFFF"/>
</g>
<g id="Shape">
<use xlink:href="#path39_fill" transform="translate(1817.69 3372.19)" fill="#FFFFFF"/>
</g>
<g id="Shape">
<use xlink:href="#path40_fill" transform="translate(1825.19 3363.75)" fill="#FFFFFF"/>
</g>
<g id="Shape">
<use xlink:href="#path41_fill" transform="translate(1833.62 3361.88)" fill="#FFFFFF"/>
</g>
<g id="Shape">
<use xlink:href="#path42_fill" transform="translate(1842.06 3359.06)" fill="#FFFFFF"/>
</g>
<g id="Shape">
<use xlink:href="#path43_fill" transform="translate(1848.62 3354.38)" fill="#FFFFFF"/>
</g>
<g id="Shape">
<use xlink:href="#path44_fill" transform="translate(1856.12 3347.81)" fill="#FFFFFF"/>
</g>
<g id="Shape">
<use xlink:href="#path45_fill" transform="translate(1813.94 3390.94)" fill="#FFFFFF"/>
</g>
<g id="Shape">
<use xlink:href="#path46_fill" transform="translate(1821.44 3387.19)" fill="#FFFFFF"/>
</g>
<g id="Shape">
<use xlink:href="#path47_fill" transform="translate(1828.94 3378.75)" fill="#FFFFFF"/>
</g>
<g id="Shape">
<use xlink:href="#path48_fill" transform="translate(1837.38 3373.12)" fill="#FFFFFF"/>
</g>
<g id="Shape">
<use xlink:href="#path49_fill" transform="translate(1845.81 3371.25)" fill="#FFFFFF"/>
</g>
<g id="Shape">
<use xlink:href="#path50_fill" transform="translate(1849.56 3370.31)" fill="#EFBB2F"/>
</g>
<g id="Shape">
<use xlink:href="#path51_fill" transform="translate(1857.06 3364.69)" fill="#EFBB2F"/>
</g>
<g id="Shape">
<use xlink:href="#path52_fill" transform="translate(1864.56 3364.69)" fill="#EFBB2F"/>
</g>
<g id="Shape">
<use xlink:href="#path53_fill" transform="translate(1870.19 3355.31)" fill="#FFFFFF"/>
</g>
<g id="Shape">
<use xlink:href="#path54_fill" transform="translate(1876.75 3352.5)" fill="#FFFFFF"/>
</g>
<g id="Shape">
<use xlink:href="#path55_fill" transform="translate(1886.12 3349.69)" fill="#EFBB2F"/>
</g>
<g id="Shape">
<use xlink:href="#path56_fill" transform="translate(1892.69 3344.06)" fill="#EFBB2F"/>
</g>
<g id="Shape">
<use xlink:href="#path57_fill" transform="translate(1900.19 3344.06)" fill="#EFBB2F"/>
</g>
<g id="Shape">
<use xlink:href="#path58_fill" transform="translate(1808.31 3409.69)" fill="#FFFFFF"/>
</g>
<g id="Shape">
<use xlink:href="#path59_fill" transform="translate(1833.62 3306.56)" fill="#FFFFFF"/>
</g>
<g id="Shape" opacity="0.3">
<use xlink:href="#path60_fill" transform="translate(1858 3375)" fill="#999999"/>
</g>
<g id="Shape" opacity="0.3">
<use xlink:href="#path60_fill" transform="translate(1905.81 3347.81)" fill="#999999"/>
</g>
<g id="Shape">
<use xlink:href="#path61_fill" transform="translate(1859.88 3377.81)" fill="#81CCB3"/>
</g>
<g id="Shape">
<use xlink:href="#path62_fill" transform="translate(1906.75 3350.62)" fill="#17A5C8"/>
</g>
<g id="Shape">
<use xlink:href="#path63_fill" transform="translate(1859.88 3421.88)" fill="#FFFFFF"/>
</g>
<g id="Shape">
<use xlink:href="#path64_fill" transform="translate(1906.75 3394.69)" fill="#FFFFFF"/>
</g>
<g id="Shape" opacity="0.12">
<use xlink:href="#path65_fill" transform="translate(1859.88 3409.69)"/>
</g>
<g id="Shape">
<use xlink:href="#path66_fill" transform="translate(1867.38 3396.56)" fill="#FFFFFF"/>
</g>
<g id="Shape" opacity="0.08">
<use xlink:href="#path67_fill" transform="translate(1867.38 3409.69)"/>
</g>
<g id="Shape" opacity="0.6">
<use xlink:href="#path68_fill" transform="translate(1867.38 3396.56)" fill="#F5F5F5"/>
</g>
<g id="Shape">
<use xlink:href="#path69_fill" transform="translate(1872.06 3409.69)" fill="#1FA6B0"/>
</g>
<g id="Shape">
<use xlink:href="#path70_fill" transform="translate(1872.06 3396.56)" fill="#8BD3DC"/>
</g>
<g id="Shape">
<use xlink:href="#path71_fill" transform="translate(1872.06 3410.62)" fill="#8BD3DC"/>
</g>
<g id="Shape" opacity="0.12">
<use xlink:href="#path72_fill" transform="translate(1906.75 3382.5)"/>
</g>
<g id="Shape">
<use xlink:href="#path66_fill" transform="translate(1915.19 3368.44)" fill="#FFFFFF"/>
</g>
<g id="Shape" opacity="0.08">
<use xlink:href="#path67_fill" transform="translate(1915.19 3382.5)"/>
</g>
<g id="Shape" opacity="0.6">
<use xlink:href="#path68_fill" transform="translate(1915.19 3368.44)" fill="#F5F5F5"/>
</g>
<g id="Shape">
<use xlink:href="#path73_fill" transform="translate(1918.94 3382.5)" fill="#1E9CBD"/>
</g>
<g id="Shape">
<use xlink:href="#path74_fill" transform="translate(1918.94 3369.38)" fill="#17A5C8"/>
</g>
<g id="Shape">
<use xlink:href="#path75_fill" transform="translate(1918.94 3383.44)" fill="#ED8AB6"/>
</g>
<g id="Shape">
<use xlink:href="#path76_fill" transform="translate(1833.62 3306.56)" fill="#17A5C8"/>
</g>
<g id="Shape" opacity="0.4">
<use xlink:href="#path77_fill" transform="translate(1833.62 3306.56)" fill="#FFFFFF"/>
</g>
<g id="Shape" opacity="0.2">
<use xlink:href="#path6_fill" transform="translate(1833.62 3381.56)"/>
</g>
<g id="Group" opacity="0.4">
<g id="Oval">
<use xlink:href="#path78_fill" transform="matrix(0.504678 -0.863307 0.863307 0.504678 1839.4 3388.79)" fill="#FFFFFF"/>
</g>
<g id="Oval">
<use xlink:href="#path78_fill" transform="matrix(0.504678 -0.863307 0.863307 0.504678 1847.02 3384.46)" fill="#FFFFFF"/>
</g>
<g id="Oval">
<use xlink:href="#path78_fill" transform="matrix(0.504678 -0.863307 0.863307 0.504678 1854.43 3380.26)" fill="#FFFFFF"/>
</g>
</g>
<g id="Shape">
<use xlink:href="#path79_fill" transform="translate(1843.94 3364.69)" fill="#EDEDED"/>
</g>
<g id="Shape">
<use xlink:href="#path80_fill" transform="translate(1693 3364.69)" fill="#DADADA"/>
</g>
<g id="Shape">
<use xlink:href="#path81_fill" transform="translate(1881.44 3383.44)" fill="#B4B5B5"/>
</g>
<g id="Shape">
<use xlink:href="#path82_fill" transform="translate(1881.44 3495)" fill="#DADADA"/>
</g>
<g id="Shape">
<use xlink:href="#path83_fill" transform="translate(1923.62 3385.31)" fill="#EDEDED"/>
</g>
<g id="Shape">
<use xlink:href="#path84_fill" transform="translate(2011.75 3481.88)" fill="#DADADA"/>
</g>
<g id="Shape">
<use xlink:href="#path85_fill" transform="translate(1977.06 3499.69)" fill="#1E9CBD"/>
</g>
<g id="Shape">
<use xlink:href="#path86_fill" transform="translate(1980.81 3544.69)" fill="url(#paint104_linear)"/>
</g>
<g id="Shape">
<use xlink:href="#path87_fill" transform="translate(2008 3499.69)" fill="url(#paint105_linear)"/>
</g>
<g id="Shape">
<use xlink:href="#path88_fill" transform="translate(2076.44 3511.88)" fill="url(#paint106_linear)"/>
</g>
<g id="Shape">
<use xlink:href="#path89_fill" transform="translate(2042.69 3500.62)" fill="url(#paint107_linear)"/>
</g>
<g id="Shape">
<use xlink:href="#path90_fill" transform="translate(1989.25 3500.62)" fill="#17A5C8"/>
</g>
<g id="Shape">
<use xlink:href="#path91_fill" transform="translate(1693 3364.69)" fill="#DADADA"/>
</g>
</g>
</g>
<defs>
<linearGradient id="paint104_linear" x1="0" y1="0" x2="1" y2="0" gradientUnits="userSpaceOnUse" gradientTransform="matrix(2.73237 -15.8856 32.9933 1.31558 11.2901 14.2251)">
<stop offset="0" stop-color="#1E9CBD"/>
<stop offset="0.22" stop-color="#1D95B4"/>
<stop offset="0.57" stop-color="#1C829C"/>
<stop offset="1" stop-color="#196477"/>
</linearGradient>
<linearGradient id="paint105_linear" x1="0" y1="0" x2="1" y2="0" gradientUnits="userSpaceOnUse" gradientTransform="matrix(0 -118.847 526.322 0 26169 4394.45)">
<stop offset="0" stop-color="#1E9CBD"/>
<stop offset="0.22" stop-color="#1D95B4"/>
<stop offset="0.57" stop-color="#1C829C"/>
<stop offset="1" stop-color="#196477"/>
</linearGradient>
<linearGradient id="paint106_linear" x1="0" y1="0" x2="1" y2="0" gradientUnits="userSpaceOnUse" gradientTransform="matrix(147.225 0 0 92.0156 7826.25 3234.19)">
<stop offset="0" stop-color="#1E9CBD"/>
<stop offset="0.22" stop-color="#1D95B4"/>
<stop offset="0.57" stop-color="#1C829C"/>
<stop offset="1" stop-color="#196477"/>
</linearGradient>
<linearGradient id="paint107_linear" x1="0" y1="0" x2="1" y2="0" gradientUnits="userSpaceOnUse" gradientTransform="matrix(99.5485 -410.644 895.95 45.6264 4208.96 7057.26)">
<stop offset="0" stop-color="#1E9CBD"/>
<stop offset="0.22" stop-color="#1D95B4"/>
<stop offset="0.57" stop-color="#1C829C"/>
<stop offset="1" stop-color="#196477"/>
</linearGradient>
<path id="path0_fill" d="M 0 201.577L 151.056 288.75L 301.875 0L 0 0L 0 201.577Z"/>
<path id="path1_fill" d="M 150.938 174.375L 0 87.1856L 150.938 0L 150.938 174.375Z"/>
<path id="path2_fill" d="M 82.5154 0L 0 47.8147L 150.982 135L 233.438 87.5989L 82.5154 0Z"/>
<path id="path3_fill" d="M 68.5098 0L 0 39.5639L 150.865 126.562L 219.375 86.9948L 68.5098 0Z"/>
<path id="path4_fill" d="M 8.26026 87.1875L 0 87.1875L 150.938 0L 301.875 87.1875L 293.615 87.1875L 150.938 4.88551L 8.26026 87.1875Z"/>
<path id="path5_fill" d="M 134.062 111.328L 3.90495 186.562L 0 184.305L 0 75.2341L 130.158 0L 134.062 2.25706L 134.062 111.328Z"/>
<path id="path6_fill" d="M 3.75 111.562L 0 109.301L 0 0L 3.75 2.26181L 3.75 111.562Z"/>
<path id="path7_fill" d="M 3.90495 77.8125L 0 75.5461L 130.158 0L 134.062 2.26642L 3.90495 77.8125Z"/>
<path id="path8_fill" d="M 130.312 45.6354L 130.312 0L 0 75.3021L 0 120.938L 130.312 45.6354Z"/>
<path id="path9_fill" d="M 6.5625 2.89083L 6.5625 7.51989L 4.68206 8.58297L 4.68206 4.56938C 4.68206 3.63685 4.19482 3.33844 3.38783 3.79352C 2.43392 4.39442 1.85958 5.43138 1.86521 6.54261L 1.86521 10.1757L 0 11.25L 0 1.06308L 1.88044 0L 1.88044 4.10312C 2.30453 2.98133 3.11143 2.03776 4.16437 1.43236C 5.62228 0.596817 6.5625 1.17871 6.5625 2.89083Z"/>
<path id="path10_fill" d="M 4.6875 7.54685C 4.21262 8.13692 3.63366 8.63974 2.97776 9.03172C 1.80493 9.69249 0.913891 9.44006 0.913891 7.91807L 0.913891 4.51772L 0 5.03371L 0 3.58596L 0.913891 3.06997L 0.913891 1.05055L 2.77975 0L 2.77975 2.01942L 4.56184 1.01714L 4.56184 2.47602L 2.77975 3.47831L 2.77975 6.50744C 2.77975 7.11995 3.01203 7.24988 3.41567 6.99745C 3.74574 6.78449 4.04208 6.52561 4.29529 6.22903L 4.6875 7.54685Z"/>
<path id="path11_fill" d="M 11.25 1.90758L 11.25 6.68267L 9.3511 7.76983L 9.3511 3.63629C 9.3511 2.66053 8.85506 2.36857 8.06063 2.82188C 7.12391 3.44025 6.56787 4.48768 6.58414 5.60318L 6.58414 9.36025L 4.68524 10.4474L 4.68524 6.30619C 4.68524 5.33043 4.1892 5.03847 3.40639 5.48409C 2.46198 6.10086 1.89962 7.15208 1.9144 8.27308L 1.9144 12.0301L 0 13.125L 0 5.52251L 1.9144 4.42766L 1.9144 5.74148C 2.33629 4.61603 3.13341 3.66726 4.1737 3.05237C 5.30529 2.40699 6.11135 2.59522 6.433 3.50952C 6.80145 2.19795 7.66446 1.077 8.84344 0.378631C 10.3199 -0.466517 11.25 0.128928 11.25 1.90758Z"/>
<path id="path12_fill" d="M 0 11.25L 0 1.06414L 1.875 0L 1.875 10.1859L 0 11.25Z"/>
<path id="path13_fill" d="M 1.28856 5.87766L 5.625 5.41413L 5.625 7.00608L 0 7.5L 0 5.69909L 5.625 0L 5.625 1.59195L 1.28856 5.87766Z"/>
<path id="path14_fill" fill-rule="evenodd" d="M 4.82344 11.396L 6.56245 10.325L 6.55891 0L 4.8199 1.07104L 4.8199 5.00342C 4.37617 4.51147 3.7054 4.50391 2.83943 5.0376C 1.05696 6.23901 -0.0167696 8.3374 0.000198153 10.5859C 0.000198153 12.8984 1.1501 13.7351 2.88911 12.6638C 3.75349 12.1116 4.43086 11.2805 4.82344 10.2908L 4.82344 11.396ZM 3.30074 6.54028C 4.19868 5.98755 4.82332 6.44946 4.82332 7.67554L 4.83394 7.67944C 4.84053 8.90039 4.26241 10.0405 3.30074 10.7034C 2.37801 11.2561 1.75337 10.7866 1.75337 9.56812C 1.75984 8.3457 2.34114 7.2085 3.30074 6.54028Z"/>
<path id="path15_fill" fill-rule="evenodd" d="M 0.9375 2.49C 1.51025 2.11427 1.86304 1.45973 1.875 0.750747C 1.875 0.0586082 1.49084 -0.185777 0.9375 0.147475C 0.364746 0.523208 0.0119629 1.17775 0 1.88673C 0 2.56789 0.384155 2.82692 0.9375 2.49ZM 0.0670166 3.9297L 0.0670166 11.25L 1.80798 10.1953L 1.80798 2.87501L 0.0670166 3.9297Z"/>
<path id="path16_fill" d="M 2.37514 10.3125L 0 4.09078L 1.85217 2.92421L 3.33028 7.61383L 4.78296 1.10047L 6.5625 0L 4.19826 9.1537L 2.37514 10.3125Z"/>
<path id="path17_fill" d="M 4.34168 1.60714L 0 2.07827L 0 0.486322L 5.625 0L 5.625 1.80091L 0 7.5L 0 5.90805L 4.34168 1.60714Z"/>
<path id="path18_fill" d="M 1.29255 5.88146L 5.625 5.41413L 5.625 7.00608L 0 7.5L 0 5.69909L 5.625 0L 5.625 1.59195L 1.29255 5.88146Z"/>
<path id="path19_fill" fill-rule="evenodd" d="M 4.81538 11.3894L 6.55537 10.3188L 6.56245 0L 4.82246 1.07056L 4.82246 5.00806C 4.37862 4.51636 3.70747 4.50879 2.84102 5.04224C 1.05757 6.24292 -0.0167697 8.34009 0.000198042 10.5874C 0.000198042 12.8987 1.15071 13.7346 2.8907 12.6641C 3.75215 12.1094 4.42598 11.2776 4.81538 10.2886L 4.81538 11.3894ZM 3.29195 6.53638C 4.19038 5.98413 4.81538 6.44556 4.81538 7.67114L 4.81538 7.67505C 4.82417 8.89307 4.25008 10.0322 3.29195 10.6973C 2.36873 11.2495 1.74373 10.7805 1.74373 9.5625C 1.7502 8.34082 2.33174 7.20435 3.29195 6.53638Z"/>
<path id="path20_fill" fill-rule="evenodd" d="M 0.9375 2.48854C 1.51025 2.11256 1.86304 1.45802 1.875 0.748791C 1.875 0.0676384 1.49084 -0.187733 0.9375 0.145275C 0.364746 0.521252 0.0119629 1.17579 0 1.88502C 0 2.56617 0.384155 2.82521 0.9375 2.48854ZM 0.0670166 3.92823L 0.0670166 11.25L 1.80798 10.1951L 1.80798 2.8733L 0.0670166 3.92823Z"/>
<path id="path21_fill" d="M 6.50262 0.472372L 5.18134 2.18559C 4.8101 1.8964 4.28718 1.87809 3.60858 2.25149C 2.57803 2.8697 1.96133 3.92633 1.97194 5.05561C 1.97194 6.22704 2.65055 6.66267 3.60858 6.15383C 4.33007 5.7658 4.89144 5.16991 5.20529 4.45891L 6.5625 4.7115C 5.96153 6.06685 4.88576 7.20023 3.50479 7.93294C 1.42108 9.03116 0 8.29902 0 6.10258C 0.0468049 3.806 1.38236 1.69409 3.53273 0.5163C 4.84204 -0.164596 5.88789 -0.164596 6.50262 0.472372Z"/>
<path id="path22_fill" d="M 0 11.25L 0 1.06379L 1.875 0L 1.875 10.1825L 0 11.25Z"/>
<path id="path23_fill" fill-rule="evenodd" d="M 2.06543 8.97784C 2.87659 8.46905 3.53333 7.70733 3.95312 6.78789L 3.93921 7.67925L 5.625 6.60747L 5.625 1.65508C 5.61108 -0.0468228 4.68457 -0.473337 3.07898 0.548636C 2.04309 1.23467 1.12463 2.11651 0.365723 3.15362L 0.9021 4.3062C 1.40076 3.59795 2.005 2.98882 2.68884 2.5042C 3.51428 1.97784 3.93921 2.17388 3.93921 2.98052L 3.93921 3.12285L 2.28833 4.17534C 0.815063 5.12823 0 6.53814 0 7.92144C 0 9.3045 0.780151 9.7962 2.06543 8.97784ZM 3.95325 4.40606L 3.95325 5.08599L 3.94971 5.08599C 3.75964 5.94659 3.25537 6.68218 2.55652 7.11846C 1.9679 7.48736 1.61963 7.3604 1.61963 6.75347C 1.61963 6.14654 1.9436 5.68535 2.60181 5.26665L 3.95325 4.40606Z"/>
<path id="path24_fill" d="M 5.58221 0.0138918L 4.92136 1.91946C 4.21217 1.86525 3.5025 2.0183 2.87663 2.36042C 2.45683 2.54242 2.16182 2.93383 2.09916 3.39194C 2.09916 4.57308 5.63663 1.90371 5.62497 4.6597C 5.62497 6.23455 4.41601 7.8094 2.90384 8.68738C 2.05993 9.28657 1.00962 9.50729 0 9.29763L 0.621973 7.4275C 1.4203 7.61241 2.25842 7.47094 2.95437 7.03378C 3.40376 6.83643 3.72309 6.42103 3.80181 5.93139C 3.80181 4.68726 0.326536 7.38419 0.326536 4.64789C 0.326536 3.04154 1.49274 1.52181 2.96604 0.671391C 3.74418 0.169643 4.66274 -0.06121 5.58221 0.0138918Z"/>
<path id="path25_fill" fill-rule="evenodd" d="M 0 3.0896L 0 4.51294L 5.625 1.42725L 5.625 0L 0 3.0896ZM 0 6.07666L 0 7.5L 5.625 4.4104L 5.625 2.98706L 0 6.07666Z"/>
<path id="path26_fill" fill-rule="evenodd" d="M 2.26917 0.794678L 2.26917 4.40918L 3.75 3.6145L 3.75 0L 2.26917 0.794678ZM 0 2.0105L 0 5.625L 1.48083 4.83032L 1.48083 1.21582L 0 2.0105Z"/>
<path id="path27_fill" d="M 1.74107 2.54116C 2.10649 1.48555 2.81534 0.588901 3.75 0L 3.75 1.91305C 2.57237 2.45165 1.79464 3.62162 1.74107 4.93515L 1.74107 8.35208L 0 9.375L 0 2.28273L 1.74107 1.25981L 1.74107 2.54116Z"/>
<path id="path28_fill" fill-rule="evenodd" d="M 3.28662 7.88254C 5.2489 6.71652 6.48645 4.6008 6.5625 2.2822C 6.5625 0.0732134 5.24219 -0.601347 3.28662 0.56296C 1.31726 1.71994 0.0738525 3.83591 0 6.15598C 0 8.34323 1.32031 9.04318 3.28662 7.88254ZM 3.28662 6.22849C 2.37805 6.7507 1.76404 6.31565 1.76404 5.14035C 1.75574 3.97922 2.33044 2.89475 3.28662 2.26755C 4.18457 1.75266 4.8092 2.18064 4.8092 3.35568C 4.81421 4.51608 4.24023 5.59885 3.28662 6.22849Z"/>
<path id="path29_fill" d="M 7.02419 9.59208L 5.62312 5.60391L 4.23334 11.153L 2.38031 12.1875L 0 6.30211L 1.88316 5.22739L 3.34449 9.59208L 4.74556 3.63359L 6.56846 2.6137L 7.99213 7.00032L 9.4158 1.0272L 11.25 0L 8.88475 8.55757L 7.02419 9.59208Z"/>
<path id="path30_fill" d="M 4.34168 1.61094L 0 2.07827L 0 0.486322L 5.625 0L 5.625 1.80091L 0 7.5L 0 5.90805L 4.34168 1.61094Z"/>
<path id="path31_fill" d="M 0 15.9375L 4.00285 0.90738L 5.625 0L 1.61048 15.0339L 0 15.9375Z"/>
<path id="path32_fill" fill-rule="evenodd" d="M 4.82344 11.3655L 6.56245 10.2966L 6.55891 0L 4.8199 1.06885L 4.8199 5.01978C 4.37617 4.52881 3.7054 4.52124 2.83943 5.05396C 1.05696 6.25293 -0.0167696 8.34717 0.000198153 10.5911C 0.000198153 12.8989 1.1501 13.7336 2.88911 12.6648C 3.75349 12.1135 4.43086 11.2842 4.82344 10.2966L 4.82344 11.3655ZM 3.30074 6.51953C 4.19868 5.96802 4.82332 6.42871 4.82332 7.65259C 4.83333 8.87036 4.25935 10.0095 3.30074 10.6743C 2.37801 11.2258 1.75337 10.7573 1.75337 9.54126C 1.75984 8.32129 2.34114 7.18652 3.30074 6.51953Z"/>
<path id="path33_fill" fill-rule="evenodd" d="M 0.9375 2.48801C 1.51025 2.11228 1.86304 1.45749 1.875 0.748264C 1.875 0.0783418 1.49084 -0.191922 0.9375 0.144992C 0.364746 0.520725 0.0119629 1.17551 0 1.88474C 0 2.56589 0.384155 2.82492 0.9375 2.48801ZM 0.0670166 3.92429L 0.0670166 11.25L 1.80798 10.1914L 1.80798 2.86936L 0.0670166 3.92429Z"/>
<path id="path34_fill" d="M 130.312 45.6316L 130.312 0L 0 75.3059L 0 120.938L 130.312 45.6316Z"/>
<path id="path35_fill" d="M 6.51061 0.476279L 5.18134 2.18866C 4.8101 1.89961 4.28718 1.88131 3.60858 2.25452C 2.57803 2.87244 1.96133 3.92854 1.97194 5.05727C 1.97194 6.22813 2.65055 6.66354 3.60858 6.15495C 4.33007 5.76711 4.89144 5.17151 5.20529 4.46086L 6.5625 4.71333C 5.96153 6.06802 4.88576 7.20084 3.50479 7.93319C 1.42108 9.03087 0 8.29908 0 6.10372C 0.0468049 3.80828 1.38236 1.6974 3.53273 0.520186C 4.85002 -0.164035 5.89587 -0.167694 6.51061 0.476279Z"/>
<path id="path36_fill" d="M 1.875 0.78907C 1.86006 1.5517 1.5081 2.25521 0.9375 2.663C 0.402328 3.01035 0 2.7359 0 2.0112C 0.0159061 1.25343 0.368259 0.555576 0.9375 0.15442C 1.46888 -0.188634 1.875 0.0472155 1.875 0.78907Z"/>
<path id="path37_fill" fill-rule="evenodd" d="M 3.72144 8.16454C 5.50525 6.95531 6.58032 4.83617 6.56226 2.56493C 6.56226 0.230216 5.40112 -0.611825 3.68945 0.459708C 2.82959 1.01781 2.15295 1.85155 1.75415 2.84423L 1.75415 1.73437L 0 2.82519L 0 13.125L 1.75415 12.0342L 1.75415 8.20678C 2.19812 8.69286 2.86926 8.69652 3.72144 8.16454ZM 3.27405 2.44994C 4.17236 1.89892 4.78674 2.38891 4.78674 3.59838L 4.78674 3.60204C 4.79211 4.82275 4.22253 5.96288 3.27405 6.62963C 2.37561 7.18847 1.75061 6.7329 1.75061 5.48144C 1.7489 4.25805 2.32239 3.11693 3.27405 2.44994Z"/>
<path id="path38_fill" d="M 1.74107 2.53921C 2.10649 1.48441 2.81534 0.588451 3.75 0L 3.75 1.91158C 2.57016 2.45092 1.79201 3.62339 1.74107 4.93855L 1.74107 8.35286L 0 9.375L 0 2.29533L 1.74107 1.27319L 1.74107 2.53921Z"/>
<path id="path39_fill" fill-rule="evenodd" d="M 3.28662 7.88233C 5.2489 6.71533 6.48645 4.59839 6.5625 2.27808C 6.5625 0.0786148 5.24927 -0.600096 3.28662 0.557863C 1.31726 1.71558 0.0738525 3.83277 0 6.15454C 0 8.34326 1.32031 9.0437 3.28662 7.88233ZM 3.28662 6.22705C 2.37805 6.74976 1.76404 6.31421 1.76404 5.13819C 1.75574 3.97632 2.33044 2.89136 3.28662 2.26367C 4.18457 1.74829 4.8092 2.17652 4.8092 3.35254C 4.81421 4.51343 4.24023 5.59717 3.28662 6.22705Z"/>
<path id="path40_fill" fill-rule="evenodd" d="M 4.82344 11.3894L 6.56245 10.3188L 6.55891 0L 4.8199 1.07056L 4.8199 5.00806C 4.37617 4.51636 3.7054 4.50879 2.83943 5.04224C 1.05696 6.24292 -0.0167696 8.34009 0.000198153 10.5874C 0.000198153 12.8987 1.1501 13.7346 2.88911 12.6641C 3.75349 12.1121 4.43086 11.2815 4.82344 10.2925L 4.82344 11.3894ZM 3.30074 6.53638C 4.19868 5.98413 4.82332 6.44556 4.82332 7.67114L 4.81978 7.67871C 4.8282 8.89478 4.25594 10.032 3.30074 10.6973C 2.37801 11.2495 1.75337 10.7805 1.75337 9.5625C 1.75984 8.34082 2.34114 7.20435 3.30074 6.53638Z"/>
<path id="path41_fill" d="M 6.5625 7.52399L 4.65864 8.60047L 4.65864 7.27293C 4.25641 8.39208 3.4621 9.33547 2.41674 9.93562C 0.93639 10.7725 0 10.1943 0 8.41408L 0 3.70874L 1.9194 2.62465L 1.9194 6.73659C 1.9194 7.68755 2.40508 7.98806 3.17829 7.55061C 4.11745 6.93832 4.67495 5.90118 4.65864 4.79664L 4.65864 1.07649L 6.5625 0L 6.5625 7.52399Z"/>
<path id="path42_fill" d="M 6.51061 0.476279L 5.18134 2.18866C 4.8101 1.89961 4.28718 1.88131 3.60858 2.25452C 2.57803 2.87244 1.96133 3.92854 1.97194 5.05727C 1.97194 6.22813 2.65055 6.66354 3.60858 6.15495C 4.33007 5.76711 4.89144 5.17151 5.20529 4.46086L 6.5625 4.71333C 5.96153 6.06802 4.88576 7.20084 3.50479 7.93319C 1.42108 9.03087 0 8.29908 0 6.10372C 0.0468049 3.80828 1.38236 1.6974 3.53273 0.520186C 4.84603 -0.164035 5.89587 -0.167694 6.51061 0.476279Z"/>
<path id="path43_fill" d="M 4.6875 7.54468C 4.21262 8.13544 3.63366 8.63886 2.97776 9.03131C 1.80493 9.69286 0.913891 9.44014 0.913891 7.91633L 0.913891 4.52309L 0 5.03969L 0 3.59022L 0.913891 3.07362L 0.913891 1.05179L 2.77975 0L 2.77975 2.02182L 4.56184 1.01835L 4.56184 2.47896L 2.77975 3.48244L 2.77975 6.51518C 2.77975 7.12842 3.01203 7.2585 3.41567 7.00577C 3.74574 6.79255 4.04208 6.53337 4.29529 6.23644L 4.6875 7.54468Z"/>
<path id="path44_fill" d="M 2.62346 5.08427C 2.69401 5.92955 2.33188 6.7536 1.65895 7.27906C 2.37654 7.08058 2.62346 7.40121 2.62346 8.386L 2.62346 10.2373C 2.62346 10.909 2.88194 11.0007 3.75 10.5197L 3.75 12.1916L 3.01698 12.5962C 1.47377 13.4703 0.925926 13.2832 0.925926 11.8671L 0.925926 9.19521C 0.925926 8.71808 0.790895 8.61502 0.443673 8.8135L 0 9.06924L 0 7.36685L 0.443673 7.11111C 0.780306 6.93175 0.971639 6.56678 0.925926 6.19121L 0.925926 3.51929C 0.925926 2.11463 1.48148 1.29397 3.01698 0.416055L 3.73071 0L 3.73071 1.67186C 2.86651 2.16807 2.60417 2.56886 2.60417 3.24065L 2.62346 5.08427Z"/>
<path id="path45_fill" fill-rule="evenodd" d="M 3.72144 8.16454C 5.50525 6.95531 6.58032 4.83617 6.56226 2.56493C 6.56226 0.230216 5.40112 -0.611825 3.68945 0.459708C 2.82959 1.01781 2.15295 1.85155 1.75415 2.84423L 1.75415 1.73437L 0 2.82519L 0 13.125L 1.75415 12.0342L 1.75415 8.20678C 2.19812 8.69286 2.86926 8.69652 3.72144 8.16454ZM 3.27405 2.44994C 4.17236 1.89892 4.78674 2.38891 4.78674 3.59838C 4.79333 4.8203 4.22351 5.96215 3.27405 6.62963C 2.37561 7.18847 1.75061 6.7329 1.75061 5.48144C 1.7489 4.25805 2.32239 3.11693 3.27405 2.44994Z"/>
<path id="path46_fill" fill-rule="evenodd" d="M 2.06543 8.97784C 2.87659 8.46905 3.53333 7.70733 3.95312 6.78789L 3.95312 7.68706L 5.625 6.60747L 5.625 1.65508C 5.61108 -0.0468228 4.68457 -0.473337 3.07898 0.548636C 2.04309 1.23467 1.12463 2.11651 0.365723 3.15362L 0.9021 4.3062C 1.40076 3.59795 2.005 2.98882 2.68884 2.5042C 3.51428 1.97784 3.93921 2.17388 3.93921 2.98052L 3.93921 3.12285L 2.28833 4.17534C 0.815063 5.12823 0 6.53814 0 7.92144C 0 9.3045 0.780151 9.7962 2.06543 8.97784ZM 3.95325 4.40972L 3.95325 5.08599L 3.94971 5.08965C 3.75964 5.95025 3.25537 6.68584 2.55652 7.12212C 1.9679 7.49102 1.61963 7.36407 1.61963 6.75713C 1.61963 6.1502 1.9436 5.68902 2.60181 5.27032L 3.95325 4.40972Z"/>
<path id="path47_fill" fill-rule="evenodd" d="M 4.82344 11.3894L 6.56245 10.3188L 6.55891 0L 4.8199 1.07056L 4.8199 5.00806C 4.37617 4.51636 3.7054 4.50879 2.83943 5.04224C 1.05696 6.24292 -0.0167696 8.34009 0.000198153 10.5874C 0.000198153 12.8987 1.1501 13.7346 2.88911 12.6641C 3.75349 12.1121 4.43086 11.2815 4.82344 10.2925L 4.82344 11.3894ZM 3.30074 6.53638C 4.19868 5.98413 4.82332 6.44556 4.82332 7.67114L 4.82332 7.67871C 4.83101 8.89551 4.25728 10.033 3.30074 10.6973C 2.37801 11.2495 1.75337 10.7805 1.75337 9.5625C 1.75984 8.34082 2.34114 7.20435 3.30074 6.53638Z"/>
<path id="path48_fill" fill-rule="evenodd" d="M 4.82344 11.3894L 6.56245 10.3188L 6.55891 0L 4.8199 1.07056L 4.8199 5.00806C 4.37617 4.51636 3.7054 4.50879 2.83943 5.04224C 1.05696 6.24292 -0.0167696 8.34009 0.000198153 10.5874C 0.000198153 12.8987 1.1501 13.7346 2.88911 12.6641C 3.75349 12.1121 4.43086 11.2815 4.82344 10.2925L 4.82344 11.3894ZM 3.30074 6.53638C 4.19868 5.98413 4.82332 6.44556 4.82332 7.67114L 4.82332 7.67505C 4.83223 8.89307 4.25838 10.0322 3.30074 10.6973C 2.37801 11.2495 1.75337 10.7805 1.75337 9.5625C 1.75984 8.34082 2.34114 7.20435 3.30074 6.53638Z"/>
<path id="path49_fill" fill-rule="evenodd" d="M 0.9375 2.48854C 1.51025 2.11256 1.86304 1.45802 1.875 0.748791C 1.875 0.0676384 1.49084 -0.187733 0.9375 0.145275C 0.364746 0.521252 0.0119629 1.17579 0 1.88502C 0 2.56617 0.384155 2.82521 0.9375 2.48854ZM 0.0528564 3.92823L 0.0528564 11.25L 1.79395 10.1951L 1.79395 2.8733L 0.0528564 3.92823Z"/>
<path id="path50_fill" d="M 6.5625 1.86466L 6.5625 6.56084L 4.6826 7.6376L 4.6826 3.56481C 4.6826 2.62028 4.19451 2.31803 3.38611 2.77896C 2.4383 3.38851 1.87138 4.43636 1.88372 5.55587L 1.88372 9.23574L 0 10.3125L 0 2.83941L 1.88372 1.76265L 1.88372 3.06987C 2.30908 1.93783 3.1177 0.987092 4.17163 0.379864C 5.62064 -0.458875 6.5625 0.115397 6.5625 1.86466Z"/>
<path id="path51_fill" fill-rule="evenodd" d="M 3.13793 12.429C 5.14025 11.3154 6.43712 9.21021 6.56249 6.87012L 6.55883 0L 4.73485 1.08496L 4.73485 2.1123C 4.29186 1.66772 3.6256 1.65625 2.75463 2.18896C 1.02697 3.33252 -0.0123405 5.30713 0.000110627 7.42212C 0.000110627 9.6189 1.1466 10.4048 2.80297 9.41943C 3.65856 8.89453 4.33385 8.10791 4.73485 7.16919L 4.73485 8.0354C 4.6621 9.18677 4.01171 10.2156 3.01891 10.7498C 2.43285 11.1501 1.71923 11.3013 1.02745 11.1714L 0.346302 13.0884C 1.3236 13.2219 2.31481 12.9878 3.13793 12.429ZM 3.24974 3.5769C 4.13182 3.04785 4.73864 3.48877 4.73864 4.65796C 4.74608 5.80786 4.18505 6.88257 3.24974 7.51025C 2.34142 8.05078 1.73473 7.60229 1.73473 6.45215C 1.73839 5.29248 2.30761 4.21216 3.24974 3.5769Z"/>
<path id="path52_fill" fill-rule="evenodd" d="M 0.9375 2.33354C 1.50806 1.97661 1.86011 1.36088 1.875 0.693403C 1.875 0.0554635 1.48792 -0.17354 0.9375 0.137983C 0.368286 0.489057 0.0158691 1.0999 0 1.76298C 0 2.39726 0.402344 2.63749 0.9375 2.33354ZM 0.9375 6.43193C 1.50806 6.07499 1.86011 5.45927 1.875 4.79179C 1.875 4.14262 1.48792 3.92485 0.9375 4.23637C 0.368286 4.58745 0.0158691 5.19829 0 5.86137C 0 6.49565 0.402344 6.73588 0.9375 6.43193Z"/>
<path id="path53_fill" d="M 4.26126 5.07823C 5.61026 4.54228 6.5625 4.9528 6.5625 6.47323C 6.42418 8.58407 5.16001 10.4776 3.21777 11.483C 2.27242 12.0881 1.11795 12.3158 0 12.1178L 0.813369 9.9208C 1.52592 10.2913 2.39527 10.2473 3.06303 9.80677C 3.95433 9.39044 4.53932 8.54325 4.59058 7.59455C 4.59058 6.7127 4.04304 6.56826 3.05113 7.11941L 1.69022 7.87963L 1.69022 6.64808L 3.77721 3.10548L 0.432474 4.9566L 0.432474 3.16629L 6.15383 0L 6.15383 1.31517L 3.82879 5.27209L 4.26126 5.07823Z"/>
<path id="path54_fill" fill-rule="evenodd" d="M 3.75769 10.6413C 6.16321 9.2519 7.5 6.68379 7.5 3.45185C 7.5 0.235299 6.18994 -0.793265 3.75769 0.619332C 1.32532 2.03169 0 4.55366 0 7.78925C 0 11.0251 1.35217 12.0307 3.75769 10.6413ZM 3.75391 8.94477C 2.53967 9.6396 1.98804 8.97163 1.98804 6.64179L 1.98804 6.64936C 1.98804 4.33491 2.55115 3.03364 3.75391 2.33881C 4.95667 1.64423 5.50818 2.28144 5.50818 4.61128C 5.50818 6.94111 4.96814 8.24995 3.75391 8.94477Z"/>
<path id="path55_fill" fill-rule="evenodd" d="M 3.72144 8.16106C 5.50525 6.95085 6.58032 4.83025 6.56226 2.55754C 6.56226 0.228684 5.40466 -0.609939 3.68945 0.458664C 2.82959 1.01701 2.15295 1.85124 1.75415 2.84465L 1.75415 1.73406L 0 2.82561L 0 13.1249L 1.75415 12.0334L 1.75415 8.20305C 2.19812 8.68962 2.86926 8.69353 3.72144 8.16106ZM 3.27405 2.44255C 4.17236 1.89104 4.78674 2.38127 4.78674 3.59172L 4.78674 3.6032C 4.78979 4.82195 4.22034 5.9594 3.27405 6.62517C 2.37561 7.18425 1.75061 6.72844 1.75061 5.476C 1.7489 4.25188 2.32239 3.10979 3.27405 2.44255Z"/>
<path id="path56_fill" d="M 4.50368 1.15929L 6.42667 0L 4.46793 4.77137L 6.5625 7.29125L 4.53585 8.51392L 3.29912 6.84766L 1.94802 10.0758L 0 11.25L 2.14461 6.19906L 0.16442 3.78728L 2.18035 2.57207L 3.31342 4.12276L 4.50368 1.15929Z"/>
<path id="path57_fill" fill-rule="evenodd" d="M 0.994507 0.144064C 0.459839 0.505392 0.128906 1.13381 0.114014 1.81594C 0.114014 2.46853 0.491821 2.7156 0.994507 2.40285C 1.5304 2.03567 1.86096 1.40212 1.875 0.715597C 1.875 0.0476287 1.50781 -0.176248 0.994507 0.144064ZM 1.62195 5.97024C 1.76978 5.64944 1.8512 5.29763 1.86072 4.93947C 1.86072 4.22903 1.46155 4.07839 1.00525 4.38723C 0.474243 4.74489 0.143799 5.36672 0.124756 6.04372C 0.124756 6.3987 0.242432 6.64211 0.481201 6.70388L 0 8.43752L 0.855469 7.90066L 1.62195 5.97024Z"/>
<path id="path58_fill" d="M 3.75 5.74914L 3.30587 6.00426C 2.96477 6.18689 2.77288 6.55771 2.82312 6.9372L 2.82312 9.60271C 2.82312 11.0154 2.26699 11.8379 0.729918 12.7099L 0 13.125L 0 11.4571C 0.853502 10.9697 1.11226 10.5699 1.11226 9.89973L 1.11226 8.0529C 1.04955 7.20304 1.41492 6.37716 2.08934 5.84433C 1.37101 6.05758 1.11226 5.74152 1.11226 4.7629L 1.11226 2.90084C 1.11226 2.22685 0.853502 2.13927 0 2.61144L 0 0.943593L 0.729918 0.528534C 2.27472 -0.34347 2.82312 -0.156884 2.82312 1.24061L 2.82312 3.90612C 2.82312 4.36688 2.95829 4.4735 3.30587 4.28691L 3.75 4.03178L 3.75 5.74914Z"/>
<path id="path59_fill" d="M 134.062 111.328L 3.90506 186.562L 0 184.305L 0 75.2341L 130.157 0L 134.062 2.25706L 134.062 111.328Z"/>
<path id="path60_fill" d="M 41.25 68.9548L 0 92.8125L 0 23.8577L 41.25 0L 41.25 68.9548Z"/>
<path id="path61_fill" d="M 38.4375 0L 38.4375 43.6605L 0 65.625L 0 21.9683L 38.4375 0Z"/>
<path id="path62_fill" d="M 38.4375 0L 38.4375 43.6567L 0 65.625L 0 21.9645L 38.4375 0Z"/>
<path id="path63_fill" d="M 38.4375 20.1582L 0 42.1875L 0 22.0293L 38.4375 0L 38.4375 20.1582Z"/>
<path id="path64_fill" d="M 38.4375 20.1565L 0 42.1875L 0 22.031L 38.4375 0L 38.4375 20.1565Z"/>
<path id="path65_fill" d="M 29.0625 2.41641L 19.0627 15.3249L 6.4954 22.5L 0 21.9107L 0 15.9512L 6.4954 8.09792L 20.6781 0L 29.0625 2.41641Z"/>
<path id="path66_fill" d="M 0.0456467 13.5843L 0 28.0691L 11.2025 29.0625L 22.4544 15.4782L 22.5 0.993431L 11.2975 0L 0.0456467 13.5843Z"/>
<path id="path67_fill" d="M 0 14.9146L 11.2043 15.9375L 11.25 1.02291L 0.0456544 0L 0 14.9146Z"/>
<path id="path68_fill" d="M 0 13.9778L 11.2252 15L 22.5 1.02221L 11.2748 0L 0 13.9778Z"/>
<path id="path69_fill" d="M 2.80576 0L 0.00336826 0.309388L 0 0.309388L 0 0.316501L 0 4.24964L 0 7.23329L 2.8125 7.5L 2.8125 0.576102L 2.8125 0.56899L 2.80576 0Z"/>
<path id="path70_fill" d="M 10.9648 0L 3.10142 9.87921L 0 13.7796L 3.0977 14.0625L 3.10142 14.0625L 3.10142 14.055L 14.0625 0.286682L 10.9648 0Z"/>
<path id="path71_fill" d="M 0 0.0140625L 0.009375 0.0046875L 0 0L 0 0.0140625Z"/>
<path id="path72_fill" d="M 29.0625 2.4127L 19.0627 15.3249L 6.4954 22.5L 0 21.9107L 0 15.9475L 6.4954 8.09792L 20.6781 0L 29.0625 2.4127Z"/>
<path id="path73_fill" d="M 2.80576 0L 0.00673653 0.309242L 0 0.305687L 0 0.316351L 0 4.24763L 0 7.22986L 2.8125 7.5L 2.8125 0.575829L 2.8125 0.56872L 2.80576 0Z"/>
<path id="path74_fill" d="M 10.9648 0L 3.10142 9.87921L 0 13.7758L 3.09397 14.0587L 3.10142 14.0625L 3.10142 14.055L 14.0625 0.286682L 10.9648 0Z"/>
<path id="path75_fill" d="M 0 0.009375L 0.009375 0L 0 0L 0 0.009375Z"/>
<path id="path76_fill" d="M 134.062 15.132L 3.90506 90L 0 87.7539L 0 74.868L 130.157 0L 134.062 2.24608L 134.062 15.132Z"/>
<path id="path77_fill" d="M 3.90506 77.8125L 0 75.5461L 130.157 0L 134.062 2.26642L 3.90506 77.8125Z"/>
<path id="path78_fill" d="M 3.48178 3.9525C 5.40471 3.9525 6.96356 3.0677 6.96356 1.97625C 6.96356 0.884797 5.40471 0 3.48178 0C 1.55885 0 0 0.884797 0 1.97625C 0 3.0677 1.55885 3.9525 3.48178 3.9525Z"/>
<path id="path79_fill" d="M 150.938 201.577L 0 288.75L 0 87.1765L 150.938 0L 150.938 201.577Z"/>
<path id="path80_fill" d="M 0 0L 150.938 86.8941L 150.938 163.125L 29.2864 88.3923L 0 0Z"/>
<path id="path81_fill" d="M 0 111.184L 133.733 0L 177.188 1.50248L 41.9556 113.438L 0 111.184Z"/>
<path id="path82_fill" d="M 65.25 208.125L 0 0L 42 2.25L 108.75 210L 65.25 208.125Z"/>
<path id="path83_fill" d="M 66.8738 319.688L 202.5 207.121L 135.626 0L 0 111.816L 66.8738 319.688Z"/>
<path id="path84_fill" d="M 0.862023 86.0036C 1.44762 89.9997 2.77195 93.8523 4.7675 97.3649C 7.66086 102.356 12.6951 107.73 20.7167 106.761C 23.7645 106.356 26.6348 105.096 28.9942 103.126L 94.3489 49.5894C 94.4655 49.4954 94.5746 49.394 94.6875 49.3L 79.6977 2.86998C 75.0773 0.239169 68.7338 -0.196794 60.9416 6.91015C 60.9416 6.91015 50.5797 -5.26674 36.1656 2.70837C 36.0113 2.79481 35.8608 2.88877 35.7103 2.97897L 6.47567 17.8844C 2.76965 19.7738 1.05185 24.1239 2.46861 28.0318L 10.1291 49.176C 4.316 54.2647 -2.41888 64.912 0.862023 86.0036Z"/>
<path id="path85_fill" d="M 88.5746 12.7612C 87.3233 10.3321 85.7049 8.10745 83.7755 6.16442L 88.5783 2.04843C 70.8598 -0.810312 65.9589 3.41045 65.9589 3.41045L 66.0268 3.50399C 64.2376 4.5307 62.5708 5.75453 61.0581 7.15226C 59.7112 5.69327 58.1672 4.42648 56.4701 3.388L 62.566 1.16536C 47.5656 -0.840247 42.9399 0.222427 41.5941 0.832342C 39.721 1.30967 37.9188 2.02795 36.2333 2.96892C 32.8005 4.89737 29.8487 7.56758 27.5965 10.7818C 23.5476 16.4507 17.5761 27.6948 17.331 44.9445C 17.331 44.9445 -4.56077 51.2532 0.864116 85.9136C 1.45087 89.8922 2.7778 93.7279 4.77727 97.2251C 6.1394 99.6555 7.94585 101.813 10.1041 103.586C 10.3031 103.757 10.5135 103.915 10.7337 104.058C 12.4129 105.262 14.3426 106.078 16.381 106.445C 19.5232 107.275 22.7546 107.727 26.0056 107.792C 37.6922 108.166 40.7082 103.302 40.7082 103.302L 32.4144 100.196L 94.5385 49.6293C 103.612 42.408 106.594 29.9975 101.781 19.489C 101.781 19.489 97.9993 9.01942 88.5746 12.7612Z"/>
<path id="path86_fill" d="M 0.0334576 12.1875L 13.4165 12.1875C 17.5057 3.04688 25.3125 0.380859 25.3125 0.380859L 13.0447 0C 13.0447 0 5.05209 2.37656 0 12.1875L 0.0334576 12.1875Z"/>
<path id="path87_fill" d="M 10.5314 0.804853C 8.65393 1.26708 6.8475 1.96264 5.15802 2.87384C 3.27979 3.88466 1.54602 5.12453 0 6.5625L 13.4146 6.5625C 18.1645 2.00784 25.9488 1.03313 29.0625 0.82297C 15.9993 -0.695251 11.8049 0.246843 10.5314 0.804853Z"/>
<path id="path88_fill" d="M 7.5 0.341062C 2.39175 -0.696956 0 0.965526 0 0.965526L 1.1462 4.6875L 7.5 0.341062Z"/>
<path id="path89_fill" d="M 0 2.55391C 0 2.55391 4.83163 -1.97161 22.5 1.02576L 17.7097 5.347L 3.31634 10.3125L 0 2.55391Z"/>
<path id="path90_fill" d="M 17.3317 44.8518C 17.3317 44.8518 -4.56093 51.1885 0.864148 86.0028C 1.45092 89.9991 2.7779 93.8519 4.77744 97.3646C 7.6766 102.356 12.7209 107.73 20.7586 106.761C 23.8125 106.356 26.6886 105.096 29.0527 103.126L 94.5382 49.5874C 103.612 42.334 106.594 29.8684 101.78 19.3132C 101.78 19.3132 98.0104 8.78961 88.5853 12.548C 88.5853 12.548 78.4062 -8.87502 61.0641 6.91039C 61.0641 6.91039 50.6814 -5.26692 36.2384 2.70847C 32.8054 4.64549 29.8535 7.32756 27.6012 10.5561C 23.5522 16.2313 17.5805 27.5254 17.3317 44.8518Z"/>
<path id="path91_fill" d="M 0 0L 150.938 87.1875L 301.875 0L 293.615 0L 151.125 81.7383L 8.44799 0.187904L 0 0Z"/>
</defs>
</svg>
