<svg width="184" height="48" viewBox="0 0 184 48" version="1.1" xmlns="http://www.w3.org/2000/svg" xmlns:xlink="http://www.w3.org/1999/xlink">
<title>LOGO_SIMPLE-01-01</title>
<desc>Created using Figma</desc>
<g id="Canvas" transform="translate(-491 -6359)">
<g id="LOGO_SIMPLE-01-01">
<g id="Page 1">
<g id="Fill 1">
<use xlink:href="#path0_fill" transform="translate(507.221 6365.65)" fill="#FFFFFF"/>
</g>
<g id="Stroke 3">
<use xlink:href="#path1_stroke" transform="translate(492 6363.13)" fill="#FFFFFF"/>
</g>
<mask id="mask0_outline" mask-type="alpha">
<g id="Clip 5">
<use xlink:href="#path2_fill" transform="translate(491 6344)" fill="#FFFFFF"/>
</g>
</mask>
<g id="SIMPLE" mask="url(#mask0_outline)">
<use xlink:href="#path3_fill" transform="translate(527.902 6354.6)" fill="#FFFFFF"/>
</g>
<g id="TECHNOLOGY" mask="url(#mask0_outline)">
<use xlink:href="#path4_fill" transform="translate(527.902 6379.32)" fill="#FFFFFF"/>
</g>
<g id="Stroke 6" mask="url(#mask0_outline)">
<use xlink:href="#path5_stroke" transform="translate(503.814 6401.38)" fill="#FFFFFF"/>
</g>
<g id="Stroke 7" mask="url(#mask0_outline)">
<use xlink:href="#path6_stroke" transform="translate(502.65 6397.72)" fill="#FFFFFF"/>
</g>
<g id="Stroke 8" mask="url(#mask0_outline)">
<use xlink:href="#path7_stroke" transform="translate(504.922 6404.86)" fill="#FFFFFF"/>
</g>
<g id="Stroke 9" mask="url(#mask0_outline)">
<use xlink:href="#path8_stroke" transform="translate(495.818 6366.98)" fill="#FFFFFF"/>
</g>
</g>
</g>
</g>
<defs>
<path id="path0_fill" fill-rule="evenodd" d="M 2 1C 2 1.552 1.552 2 1 2C 0.448 2 0 1.552 0 1C 0 0.447 0.448 0 1 0C 1.552 0 2 0.447 2 1Z"/>
<path id="path1_stroke" d="M 7.16484 30.9681C 7.6338 31.2598 8.25045 31.1161 8.54214 30.6472C 8.83384 30.1782 8.69013 29.5616 8.22116 29.2699L 7.16484 30.9681ZM 24.3664 29.2558C 23.8979 29.5483 23.7553 30.1652 24.0478 30.6336C 24.3403 31.1021 24.9572 31.2447 25.4256 30.9522L 24.3664 29.2558ZM 8.22116 29.2699C 3.8834 26.5718 1 21.7633 1 16.284L -1 16.284C -1 22.4827 2.2646 27.9202 7.16484 30.9681L 8.22116 29.2699ZM 1 16.284C 1 7.84224 7.84233 1 16.283 1L 16.283 -1C 6.73768 -1 -1 6.73776 -1 16.284L 1 16.284ZM 16.283 1C 24.7237 1 31.566 7.84224 31.566 16.284L 33.566 16.284C 33.566 6.73776 25.8283 -1 16.283 -1L 16.283 1ZM 31.566 16.284C 31.566 21.7548 28.6921 26.5548 24.3664 29.2558L 25.4256 30.9522C 30.3119 27.9012 33.566 22.4732 33.566 16.284L 31.566 16.284Z"/>
<path id="path2_fill" fill-rule="evenodd" d="M 0 72L 183.902 72L 183.902 0L 0 0L 0 72Z"/>
<path id="path3_fill" d="M 5.09736 21.3921C 4.04468 21.3921 2.69881 21.1625 1.05974 20.7033L 1.05974 18.499C 2.82598 19.3185 4.27782 19.7283 5.41528 19.7283C 6.29133 19.7283 6.99429 19.4987 7.52416 19.0395C 8.0611 18.5803 8.32957 17.9762 8.32957 17.2273C 8.32957 16.6127 8.15294 16.0899 7.7997 15.6589C 7.45351 15.2279 6.8106 14.7475 5.87097 14.2177L 4.79003 13.5924C 3.45476 12.8294 2.51159 12.1123 1.96052 11.4411C 1.41652 10.7629 1.14452 9.97516 1.14452 9.07791C 1.14452 7.86981 1.58255 6.87718 2.4586 6.10004C 3.33465 5.31583 4.45091 4.92373 5.80738 4.92373C 7.01549 4.92373 8.29071 5.12508 9.63305 5.52778L 9.63305 7.56248C 7.97985 6.91251 6.74702 6.58752 5.93455 6.58752C 5.16447 6.58752 4.52863 6.7924 4.02702 7.20217C 3.52541 7.61194 3.2746 8.12768 3.2746 8.74939C 3.2746 9.2722 3.45829 9.73495 3.82567 10.1377C 4.19304 10.5404 4.86421 11.0208 5.83917 11.5789L 6.9625 12.2147C 8.31897 12.9848 9.26567 13.7125 9.80261 14.3978C 10.3395 15.0831 10.608 15.9062 10.608 16.867C 10.608 18.2305 10.1029 19.3256 9.09258 20.1522C 8.08936 20.9788 6.75762 21.3921 5.09736 21.3921ZM 13.7321 21L 13.7321 5.31583L 15.9575 5.31583L 15.9575 21L 13.7321 21ZM 20.0141 21L 20.0141 5.31583L 23.098 5.31583L 27.4429 17.4499L 31.915 5.31583L 34.6703 5.31583L 34.6703 21L 32.5933 21L 32.5933 8.24072L 28.2695 19.9509L 26.1182 19.9509L 21.9217 8.20892L 21.9217 21L 20.0141 21ZM 38.727 21L 38.727 5.31583L 42.9977 5.31583C 44.8911 5.31583 46.2511 5.63728 47.0777 6.28019C 47.9043 6.91604 48.3176 7.96518 48.3176 9.42763C 48.3176 11.095 47.7524 12.402 46.622 13.3487C 45.4916 14.2954 43.9232 14.7687 41.9168 14.7687L 40.9312 14.7687L 40.9312 21L 38.727 21ZM 40.9312 13.0837L 41.832 13.0837C 43.1531 13.0837 44.174 12.7799 44.8947 12.1724C 45.6153 11.5648 45.9756 10.7064 45.9756 9.59718C 45.9756 8.65755 45.693 7.98638 45.1278 7.58368C 44.5626 7.18097 43.6194 6.97962 42.2983 6.97962L 40.9312 6.97962L 40.9312 13.0837ZM 50.7422 21L 50.7422 5.31583L 52.9677 5.31583L 52.9677 19.3362L 60.0256 19.3362L 60.0256 21L 50.7422 21ZM 62.3336 21L 62.3336 5.31583L 71.0977 5.31583L 71.0977 6.97962L 64.5591 6.97962L 64.5591 12.0134L 70.0379 12.0134L 70.0379 13.656L 64.5591 13.656L 64.5591 19.3362L 71.5534 19.3362L 71.5534 21L 62.3336 21Z"/>
<path id="path4_fill" d="M 5.75439 21L 5.75439 6.97962L 0.190753 6.97962L 0.190753 5.31583L 13.5435 5.31583L 13.5435 6.97962L 7.97985 6.97962L 7.97985 21L 5.75439 21ZM 15.7774 21L 15.7774 5.31583L 24.5414 5.31583L 24.5414 6.97962L 18.0028 6.97962L 18.0028 12.0134L 23.4817 12.0134L 23.4817 13.656L 18.0028 13.656L 18.0028 19.3362L 24.9971 19.3362L 24.9971 21L 15.7774 21ZM 34.2782 21.3921C 31.8408 21.3921 29.958 20.6785 28.6298 19.2514C 27.3016 17.8172 26.6375 15.7896 26.6375 13.1685C 26.6375 10.5545 27.3122 8.52685 28.6616 7.0856C 30.0181 5.64435 31.9256 4.92373 34.3842 4.92373C 35.7901 4.92373 37.4363 5.15334 39.3226 5.61256L 39.3226 7.70025C 37.1749 6.95843 35.5181 6.58752 34.3524 6.58752C 32.6498 6.58752 31.3322 7.16331 30.3996 8.3149C 29.467 9.46648 29.0007 11.0914 29.0007 13.1897C 29.0007 15.1891 29.4988 16.7681 30.495 17.9268C 31.4911 19.0783 32.8511 19.6541 34.575 19.6541C 36.0586 19.6541 37.6482 19.1984 39.3438 18.2871L 39.3438 20.1946C 37.7966 20.9929 36.1081 21.3921 34.2782 21.3921ZM 42.6056 21L 42.6056 5.31583L 44.8311 5.31583L 44.8311 11.9286L 52.2916 11.9286L 52.2916 5.31583L 54.5171 5.31583L 54.5171 21L 52.2916 21L 52.2916 13.5924L 44.8311 13.5924L 44.8311 21L 42.6056 21ZM 58.5843 21L 58.5843 5.31583L 60.7674 5.31583L 68.6625 17.4287L 68.6625 5.31583L 70.57 5.31583L 70.57 21L 68.3975 21L 60.4918 8.88716L 60.4918 21L 58.5843 21ZM 80.9639 21.3921C 78.7878 21.3921 77.0357 20.6397 75.7075 19.1349C 74.3864 17.623 73.7258 15.6271 73.7258 13.1473C 73.7258 10.6534 74.3899 8.66108 75.7181 7.17038C 77.0534 5.67261 78.8338 4.92373 81.0592 4.92373C 83.2776 4.92373 85.0545 5.66908 86.3897 7.15978C 87.725 8.65048 88.3926 10.6393 88.3926 13.1261C 88.3926 15.6624 87.725 17.6759 86.3897 19.1666C 85.0545 20.6503 83.2458 21.3921 80.9639 21.3921ZM 80.9956 19.7283C 82.5994 19.7283 83.8393 19.1525 84.7153 18.0009C 85.5914 16.8423 86.0294 15.2103 86.0294 13.1049C 86.0294 11.0632 85.5879 9.46648 84.7047 8.3149C 83.8287 7.16331 82.6135 6.58752 81.0592 6.58752C 79.4979 6.58752 78.2792 7.16684 77.4031 8.32549C 76.5271 9.47708 76.089 11.0808 76.089 13.1367C 76.089 15.1856 76.5235 16.7964 77.3925 17.9691C 78.2615 19.1419 79.4626 19.7283 80.9956 19.7283ZM 91.5379 21L 91.5379 5.31583L 93.7633 5.31583L 93.7633 19.3362L 100.821 19.3362L 100.821 21L 91.5379 21ZM 108.599 21.3921C 106.423 21.3921 104.671 20.6397 103.343 19.1349C 102.021 17.623 101.361 15.6271 101.361 13.1473C 101.361 10.6534 102.025 8.66108 103.353 7.17038C 104.688 5.67261 106.469 4.92373 108.694 4.92373C 110.913 4.92373 112.689 5.66908 114.025 7.15978C 115.36 8.65048 116.028 10.6393 116.028 13.1261C 116.028 15.6624 115.36 17.6759 114.025 19.1666C 112.689 20.6503 110.881 21.3921 108.599 21.3921ZM 108.631 19.7283C 110.234 19.7283 111.474 19.1525 112.35 18.0009C 113.226 16.8423 113.664 15.2103 113.664 13.1049C 113.664 11.0632 113.223 9.46648 112.34 8.3149C 111.464 7.16331 110.249 6.58752 108.694 6.58752C 107.133 6.58752 105.914 7.16684 105.038 8.32549C 104.162 9.47708 103.724 11.0808 103.724 13.1367C 103.724 15.1856 104.159 16.7964 105.028 17.9691C 105.897 19.1419 107.098 19.7283 108.631 19.7283ZM 130.957 20.5761C 129.057 21.1201 127.4 21.3921 125.987 21.3921C 123.493 21.3921 121.579 20.6821 120.243 19.262C 118.915 17.842 118.251 15.8073 118.251 13.1579C 118.251 10.558 118.926 8.53744 120.275 7.09619C 121.624 5.64788 123.518 4.92373 125.955 4.92373C 127.552 4.92373 129.212 5.1604 130.936 5.63375L 130.936 7.68965C 128.774 6.9549 127.117 6.58752 125.966 6.58752C 124.27 6.58752 122.953 7.16331 122.013 8.3149C 121.08 9.46648 120.614 11.0879 120.614 13.1791C 120.614 15.2491 121.116 16.8599 122.119 18.0115C 123.122 19.1561 124.528 19.7283 126.337 19.7283C 127.079 19.7283 127.88 19.5976 128.742 19.3362L 128.742 14.2283L 130.957 14.2283L 130.957 20.5761ZM 138.267 21L 138.267 14.4508L 133.032 5.31583L 135.575 5.31583L 139.645 12.3949L 144.032 5.31583L 146.099 5.31583L 140.493 14.4084L 140.493 21L 138.267 21Z"/>
<path id="path5_stroke" d="M 9.1647 1.02784C 9.70695 0.923075 10.0616 0.398559 9.95684 -0.143698C 9.85208 -0.685954 9.32756 -1.04061 8.7853 -0.935843L 9.1647 1.02784ZM 0.201171 -0.979556C -0.339823 -1.09066 -0.868453 -0.742165 -0.979556 -0.201171C -1.09066 0.339823 -0.742165 0.868453 -0.201171 0.979556L 0.201171 -0.979556ZM 8.7853 -0.935843C 7.43209 -0.674394 6.03862 -0.533 4.613 -0.533L 4.613 1.467C 6.17138 1.467 7.69191 1.31239 9.1647 1.02784L 8.7853 -0.935843ZM 4.613 -0.533C 3.10109 -0.533 1.62548 -0.687046 0.201171 -0.979556L -0.201171 0.979556C 1.35452 1.29905 2.96491 1.467 4.613 1.467L 4.613 -0.533Z"/>
<path id="path6_stroke" d="M 11.7696 0.977533C 12.2979 0.816472 12.5956 0.257653 12.4345 -0.270626C 12.2735 -0.798904 11.7147 -1.09659 11.1864 -0.935533L 11.7696 0.977533ZM 0.295115 -0.955462C -0.232572 -1.11845 -0.792474 -0.822802 -0.955462 -0.295115C -1.11845 0.232572 -0.822802 0.792474 -0.295115 0.955462L 0.295115 -0.955462ZM 11.1864 -0.935533C 9.4751 -0.413803 7.65931 -0.131 5.776 -0.131L 5.776 1.869C 7.86069 1.869 9.8729 1.5558 11.7696 0.977533L 11.1864 -0.935533ZM 5.776 -0.131C 3.86766 -0.131 2.02708 -0.420505 0.295115 -0.955462L -0.295115 0.955462C 1.62492 1.54851 3.66434 1.869 5.776 1.869L 5.776 -0.131Z"/>
<path id="path7_stroke" d="M 6.71529 1.0461C 7.26377 0.981317 7.65588 0.484177 7.5911 -0.0642949C 7.52632 -0.612767 7.02918 -1.00488 6.48071 -0.940097L 6.71529 1.0461ZM 0.133918 -0.990992C -0.413392 -1.06495 -0.917032 -0.681228 -0.990992 -0.133918C -1.06495 0.413392 -0.681228 0.917032 -0.133918 0.990992L 0.133918 -0.990992ZM 6.48071 -0.940097C 5.49926 -0.824178 4.50863 -0.759 3.504 -0.759L 3.504 1.241C 4.59537 1.241 5.66474 1.17018 6.71529 1.0461L 6.48071 -0.940097ZM 3.504 -0.759C 2.36335 -0.759 1.2402 -0.841495 0.133918 -0.990992L -0.133918 0.990992C 1.0538 1.15149 2.26665 1.241 3.504 1.241L 3.504 -0.759Z"/>
<path id="path8_stroke" d="M -0.997263 11.1351C -1.03809 11.6858 -0.624705 12.1654 -0.0739322 12.2063C 0.476841 12.2471 0.956432 11.8337 0.997263 11.2829L -0.997263 11.1351ZM 9.73817 0.971711C 10.2748 0.841275 10.6041 0.300487 10.4737 -0.236174C 10.3433 -0.772835 9.80249 -1.10215 9.26583 -0.971711L 9.73817 0.971711ZM 0.997263 11.2829C 1.36968 6.25944 4.97307 2.12987 9.73817 0.971711L 9.26583 -0.971711C 3.67093 0.38813 -0.55968 5.23256 -0.997263 11.1351L 0.997263 11.2829Z"/>
</defs>
</svg>
